<svg version="1.1" id="Layer_1" xmlns="http://www.w3.org/2000/svg" xmlns:xlink="http://www.w3.org/1999/xlink" x="0px" y="0px"
	 width="100%" viewBox="0 0 1024 1024" enable-background="new 0 0 1024 1024" xml:space="preserve">
<path fill="#000000" opacity="1.000000" stroke="none" 
	d="
M554.772888,263.606384 
	C571.884338,264.698120 587.606140,269.221710 602.973022,276.502319 
	C601.660217,278.216766 600.433228,277.575134 599.515198,277.364288 
	C578.643127,272.569946 558.692932,275.124756 540.355103,286.120148 
	C524.167358,295.826355 512.657593,308.970642 511.221710,329.216827 
	C509.215851,357.499146 522.430115,378.881622 543.567749,390.016022 
	C563.476562,400.503113 587.295715,396.380798 603.932068,381.681152 
	C611.725708,374.794830 617.721375,366.934357 620.107971,356.593140 
	C622.390930,346.701263 619.033386,339.262329 610.086731,334.633270 
	C599.287598,329.045685 587.910645,328.209381 576.140808,330.240875 
	C574.379578,330.544861 572.603638,330.763153 570.722534,331.037415 
	C570.587708,328.820404 572.172546,328.288635 573.381836,327.706238 
	C585.826721,321.712982 598.452698,318.489960 612.272339,323.418732 
	C623.896484,327.564423 631.959961,338.207520 632.402832,350.457458 
	C633.013062,367.335999 626.215149,380.925720 615.327515,393.259186 
	C597.391907,413.576569 574.527100,426.441956 550.402344,437.610657 
	C528.904724,447.563141 506.555176,455.198395 483.847839,461.713745 
	C461.592712,468.099335 438.890961,472.115845 415.581329,470.293365 
	C408.478638,469.738068 401.422211,468.383392 395.059998,464.708893 
	C389.245758,461.350861 386.942322,456.044220 388.334900,449.606689 
	C390.371918,440.189941 396.149384,433.415894 403.028412,427.101685 
	C409.122314,421.508118 415.978912,416.945465 422.313477,411.650055 
	C414.789490,414.371429 407.975037,418.340973 401.408844,422.816956 
	C388.290314,431.759460 376.329803,441.923828 366.786682,454.747864 
	C364.683472,457.574188 363.003326,460.608429 361.326508,463.682312 
	C354.308899,476.546906 360.877533,484.557098 370.976959,489.519836 
	C373.574341,490.796173 376.236298,491.941162 378.588348,493.890472 
	C368.359955,493.429352 358.355865,492.575653 349.922028,485.756104 
	C340.761536,478.349030 340.523773,468.545197 342.062439,457.889984 
	C332.721710,467.276825 328.653839,478.595428 328.933563,492.039856 
	C323.033295,485.410645 324.861877,462.791565 331.665466,451.890289 
	C339.158508,439.884308 349.362762,430.480652 360.313629,421.817047 
	C333.066254,435.982788 314.919464,457.596100 306.948090,488.081818 
	C303.508881,484.264923 303.450806,479.810303 302.832367,475.793518 
	C301.447418,466.798279 300.642792,457.713074 299.637604,448.660522 
	C299.454193,447.008942 299.677795,445.041260 297.626617,444.551147 
	C295.898621,444.138306 295.137329,445.793091 294.154114,446.917114 
	C286.864960,455.249725 281.383606,464.607941 280.486145,475.766571 
	C279.282288,490.735229 287.208557,501.279388 298.700653,509.618652 
	C312.495300,519.628723 328.521301,524.117798 344.856903,527.430847 
	C359.830475,530.467651 375.160583,531.450134 390.355438,531.401855 
	C414.903931,531.323914 439.325012,528.709045 463.535156,524.395142 
	C500.225403,517.857544 535.985291,507.855377 571.088806,495.468262 
	C593.200806,487.665466 614.753357,478.458435 636.120300,468.806183 
	C658.596863,458.652679 680.305908,447.025482 701.821899,435.013275 
	C705.974915,432.694641 706.978577,433.370270 707.391907,437.978760 
	C708.179871,446.764008 708.858948,455.570587 708.289368,464.363708 
	C706.224915,496.237488 698.928894,526.636414 683.004211,554.708923 
	C674.162964,570.294312 663.548340,584.548584 650.951050,597.098083 
	C631.857117,616.119324 609.964844,631.165588 584.800537,641.479126 
	C567.424194,648.600830 549.531982,653.211182 530.989197,655.168091 
	C497.510925,658.701050 465.088409,654.128479 434.011322,640.988525 
	C426.970459,638.011536 420.137451,634.540405 413.231781,631.248352 
	C411.800262,630.565918 410.471069,629.668945 409.047302,628.167847 
	C477.508392,638.023926 532.742065,612.742126 579.822327,565.265076 
	C507.977875,616.598389 430.542480,623.313049 348.783997,596.110474 
	C348.683838,595.169739 348.583679,594.229004 348.483521,593.288269 
	C388.573853,599.379944 427.983612,597.620422 466.469086,584.669312 
	C505.029175,571.692993 538.447754,549.942444 569.477356,523.914429 
	C567.336914,525.059204 565.194763,526.200745 563.056458,527.349670 
	C560.712219,528.609314 558.349060,529.835999 556.032776,531.145386 
	C525.441162,548.439148 493.007080,561.208374 459.026886,569.942017 
	C440.382568,574.734070 421.429993,578.037903 402.169556,579.490540 
	C389.247284,580.465149 376.324066,581.852356 363.377045,581.287354 
	C337.156433,580.143188 311.056183,578.084045 286.183258,568.485596 
	C272.777222,563.312317 260.720306,556.297241 251.031586,545.494690 
	C243.930878,537.577759 241.523071,528.066406 240.528473,517.958008 
	C242.298340,517.353149 242.663467,518.430237 242.886398,519.002380 
	C250.049820,537.388123 265.391876,546.429504 282.512787,552.976013 
	C300.405121,559.817566 319.025940,563.448181 338.229736,564.724487 
	C357.014832,565.973022 375.634125,565.811279 394.374115,563.807861 
	C406.543396,562.506958 418.410248,559.980774 430.374725,557.589539 
	C425.461639,557.589539 420.521423,557.262207 415.641846,557.666504 
	C408.373627,558.268616 401.155701,559.328064 393.831085,559.433228 
	C386.196228,559.542847 378.544159,560.599243 370.939636,560.281982 
	C346.084015,559.245056 321.199371,558.263489 296.992035,551.521606 
	C283.261963,547.697693 270.319305,542.468140 258.806091,533.756592 
	C244.550995,522.970398 239.033325,504.697113 245.425568,487.952393 
	C252.165375,470.297180 264.487122,456.906586 278.323822,444.709503 
	C284.303986,439.437897 290.493073,434.380310 297.222137,430.038239 
	C299.630127,428.484406 300.451599,426.206726 300.703308,423.280151 
	C302.551636,401.789154 307.979340,381.174469 316.644043,361.440765 
	C324.371429,343.841736 334.171539,327.491486 346.449524,312.638367 
	C364.453766,290.858002 386.218140,274.128571 412.055023,262.564941 
	C430.244659,254.423950 449.316010,249.240891 468.926758,247.000473 
	C485.146576,245.147446 501.542480,242.522903 518.018127,245.503815 
	C520.603760,245.971619 523.339539,245.625595 526.005859,245.625946 
	C527.853394,245.626205 529.631714,245.733994 531.160156,248.155518 
	C522.194824,248.971512 513.669495,249.678329 505.280579,251.374115 
	C481.581299,256.164795 460.002502,265.390747 441.313019,281.057800 
	C428.410919,291.873383 418.382599,304.430511 413.973083,321.058502 
	C408.937469,340.047729 414.959595,355.299927 429.880615,366.986786 
	C440.893738,375.612823 453.635223,380.695740 467.936188,381.150665 
	C471.146790,381.252808 474.182556,383.414886 478.026825,382.112427 
	C468.265228,379.832611 458.918945,377.625916 450.256073,373.327606 
	C442.842651,369.649292 436.285156,364.822723 431.761261,357.804962 
	C425.225922,347.666962 425.309998,336.746124 429.126038,325.748016 
	C434.445648,310.416504 444.880249,298.888000 457.530365,289.274384 
	C475.646118,275.507172 496.299072,267.324677 518.611145,263.851929 
	C530.375366,262.020966 542.423340,261.582947 554.772888,263.606384 
M642.075989,538.457153 
	C647.460022,534.244629 654.612366,534.947083 660.850159,531.960205 
	C656.743164,530.969543 653.077087,530.102539 649.419983,529.199280 
	C643.163391,527.653931 638.899841,524.343323 637.127319,517.640503 
	C636.042908,513.539551 635.597839,509.027802 632.829895,504.728912 
	C631.905762,508.686615 630.990479,511.877838 630.434326,515.130432 
	C628.988708,523.584778 624.156189,528.203613 615.631348,529.568848 
	C612.278137,530.105835 608.620361,530.196655 604.897400,532.516907 
	C608.958801,533.340881 612.351013,534.011292 615.735291,534.719299 
	C623.654785,536.375977 629.610291,539.982544 630.716492,548.958557 
	C631.140137,552.395752 632.306030,555.741455 633.377991,560.129150 
	C634.917725,555.377258 636.095520,551.800293 636.805786,548.028870 
	C637.440063,544.660461 638.411072,541.183533 642.075989,538.457153 
M391.620941,361.244812 
	C379.263977,359.234833 380.274750,347.807281 376.591248,339.300659 
	C375.562805,341.494843 374.711426,343.202057 374.282745,345.194885 
	C371.624786,357.550842 368.991425,360.053131 356.467926,362.306366 
	C354.610565,362.640564 352.787537,362.816437 349.745300,365.434265 
	C367.642151,364.538483 375.063843,373.536591 376.118866,389.443665 
	C379.960419,383.421082 378.658508,376.080048 383.147766,371.273010 
	C387.753113,366.341644 395.116699,367.255585 401.204468,364.042175 
	C398.305725,361.813507 395.075531,362.482880 391.620941,361.244812 
M487.071655,320.731262 
	C488.597595,316.728302 494.081360,318.189911 496.435974,313.713379 
	C488.940521,313.598022 485.559143,308.945404 483.898834,302.436279 
	C480.316528,304.862518 480.934357,308.708679 478.536407,310.926514 
	C476.171021,313.114288 472.022430,312.309265 469.936981,316.652069 
	C479.121613,316.307526 481.382446,322.800293 483.410248,330.728882 
	C484.850769,326.658966 485.779816,324.034149 487.071655,320.731262 
M597.554565,579.960999 
	C595.528320,584.277100 590.520447,582.822144 587.130371,585.217285 
	C590.609741,587.171936 595.419006,586.238892 597.328918,590.123047 
	C598.927490,593.373901 599.721985,597.020203 601.369446,601.990356 
	C601.934021,592.449707 604.455444,585.929138 614.451355,585.099915 
	C605.913269,584.530945 602.462402,579.350830 600.628601,571.155640 
	C599.375793,574.901611 598.643738,577.090515 597.554565,579.960999 
M517.221130,417.040924 
	C514.883545,413.560699 508.907837,413.624298 508.587921,408.134216 
	C508.532532,407.183899 508.170410,406.133728 506.206940,406.230621 
	C505.026581,410.642548 502.550140,414.474731 497.182892,416.622589 
	C503.133057,418.360748 504.667084,423.188171 507.055389,427.871521 
	C508.709442,422.438171 511.534363,418.699066 517.221130,417.040924 
M665.786926,507.564819 
	C666.022949,507.787354 666.244690,508.030182 666.507507,508.214508 
	C666.557129,508.249298 666.869263,508.072266 666.893005,507.958191 
	C668.197510,501.684174 672.696594,499.132416 678.773926,497.966949 
	C672.540771,496.853607 667.879944,494.277039 666.728088,487.164490 
	C665.127197,493.679291 660.515503,496.373047 654.848022,498.249084 
	C660.200256,499.499878 664.535950,501.306946 665.786926,507.564819 
M443.149780,438.276428 
	C441.497498,436.636200 442.076935,433.464508 438.704468,432.020477 
	C438.669800,438.441315 433.767059,440.153320 427.812164,442.743835 
	C434.494629,443.967316 437.282043,447.789734 440.478180,451.888519 
	C441.391052,446.377686 445.896851,444.864502 449.643982,442.329712 
	C447.353271,440.975647 445.504150,439.882599 443.149780,438.276428 
M340.828522,392.095673 
	C339.681519,394.049347 336.433624,393.874054 336.003387,397.047363 
	C340.883850,397.808716 341.965149,402.239929 344.577881,407.217987 
	C344.549133,400.288208 348.390503,397.916077 353.023071,395.644073 
	C346.642395,394.762238 345.641785,389.739075 343.786774,384.652557 
	C342.725159,387.502106 341.981506,389.498230 340.828522,392.095673 
M303.435730,537.320557 
	C302.691010,536.972656 301.973022,536.543335 301.197601,536.289001 
	C286.616241,531.505737 273.340210,524.694641 263.701874,512.219238 
	C262.992950,511.301697 262.484802,510.208160 261.688416,509.385101 
	C260.917877,508.588867 261.000610,506.858673 258.964386,507.054932 
	C267.308960,526.912109 284.293884,533.898193 303.435730,537.320557 
M484.074188,348.936462 
	C481.499542,350.908508 478.554779,352.852844 482.017059,356.394806 
	C483.404205,357.813904 485.265381,358.012573 487.064941,357.042114 
	C488.425781,356.308258 489.660248,355.199524 489.482208,353.570038 
	C489.181671,350.818848 487.501038,349.149323 484.074188,348.936462 
M461.427948,346.979095 
	C463.951294,343.780396 461.917633,341.704285 459.437897,340.137970 
	C456.897827,338.533600 455.585754,340.831665 454.264160,342.448303 
	C452.947021,344.059479 453.752014,345.657349 454.792450,346.940491 
	C456.565247,349.126831 458.726837,348.961487 461.427948,346.979095 
M470.184235,422.410400 
	C469.770721,420.095093 468.315948,419.066193 466.041809,419.143646 
	C464.555298,419.194305 463.684387,420.110626 463.166595,421.427094 
	C462.509003,423.098938 463.392670,424.453308 464.493286,425.332062 
	C467.527374,427.754425 468.689392,424.995850 470.184235,422.410400 
M408.138031,387.955536 
	C406.323242,386.948730 404.964203,387.292084 404.629791,389.451813 
	C404.463776,390.523773 405.438812,391.336456 406.417633,391.355988 
	C408.370148,391.394928 409.540375,390.580017 408.138031,387.955536 
z"/>
<path fill="#000000" opacity="1.000000" stroke="none" 
	d="
M738.271606,358.248962 
	C744.342041,350.738831 750.576233,343.812805 754.734863,335.330475 
	C762.933411,318.608246 758.229370,304.313690 741.808838,295.513153 
	C728.445251,288.350983 713.829041,286.351044 699.166931,284.451111 
	C687.587036,282.950592 675.920227,283.545532 664.285950,283.315186 
	C660.373291,283.237701 656.578796,285.656006 651.892944,283.520660 
	C659.531311,280.858215 666.953796,280.506561 674.196533,279.778839 
	C685.434448,278.649689 696.775635,277.875000 708.064453,278.701630 
	C727.568726,280.129822 747.222534,281.405670 765.252441,290.040100 
	C792.775146,303.220703 796.291992,326.752563 783.076843,350.831085 
	C774.296997,366.828278 761.120056,379.087677 747.205872,390.547363 
	C717.986389,414.612427 685.443909,433.367035 651.339172,449.408020 
	C619.874268,464.207367 587.498718,476.736786 554.148254,486.783203 
	C530.725891,493.838928 507.097351,499.981293 483.006805,504.030243 
	C468.984161,506.386993 454.888641,508.441589 440.646912,509.683228 
	C425.868378,510.971710 411.127899,511.621277 396.354218,511.302399 
	C383.265076,511.019897 370.251526,509.357544 357.314240,507.290863 
	C356.074158,507.092804 354.915558,506.384369 352.752747,505.532013 
	C356.267914,504.070892 358.952240,503.809479 361.668396,504.312042 
	C373.885773,506.572693 386.295074,506.257599 398.478058,505.361755 
	C428.084808,503.184662 457.171112,497.725800 485.697662,489.236908 
	C520.287537,478.943665 554.069763,466.565155 587.244263,452.356903 
	C619.288574,438.632721 650.317444,423.012543 679.715149,404.312531 
	C700.637695,391.003662 720.614441,376.350922 738.271606,358.248962 
z"/>
<path fill="#000000" opacity="1.000000" stroke="none" 
	d="
M586.795105,437.768341 
	C604.438477,427.950836 621.296265,417.553253 637.020203,405.467773 
	C655.393616,391.345886 672.931030,376.335358 685.395752,356.333832 
	C689.506836,349.736786 692.997192,342.693848 693.306091,335.044525 
	C693.739319,324.317169 687.571960,316.709351 678.831970,311.070038 
	C665.909363,302.731842 651.580383,299.107117 636.380188,298.382477 
	C635.581543,298.344421 634.791626,298.125397 633.668762,297.934814 
	C635.380920,294.376862 638.813721,295.207245 641.122375,294.903259 
	C658.878052,292.565399 676.563293,293.525024 693.952148,297.791687 
	C700.696533,299.446503 707.220764,301.882080 713.364868,305.447510 
	C728.165100,314.036072 730.486877,329.195831 724.086365,345.060028 
	C717.444519,361.522766 704.865784,373.372528 692.155884,384.797699 
	C676.931396,398.483215 659.854065,409.752289 641.983093,419.832428 
	C619.934204,432.269196 597.461609,443.769012 574.057373,453.476044 
	C554.076355,461.763245 533.835266,469.267517 513.122009,475.495880 
	C512.058411,475.815704 511.005676,476.623505 508.613159,474.933411 
	C535.681030,463.778015 561.339539,451.389954 586.795105,437.768341 
z"/>
<path fill="#000000" opacity="1.000000" stroke="none" 
	d="
M654.298340,338.606323 
	C655.422058,342.011658 656.833740,345.019348 655.250000,348.675781 
	C651.683350,340.579163 646.384583,333.842285 639.925781,328.099915 
	C621.072021,311.337341 599.394592,305.651978 575.184631,313.441467 
	C559.152405,318.599792 549.643188,330.397980 546.564209,346.944550 
	C543.862671,361.462891 556.540771,375.934326 572.505249,377.700623 
	C579.457397,378.469818 586.229370,377.366333 593.179688,376.794373 
	C593.014038,379.559540 590.910095,379.517456 589.543030,379.873352 
	C577.469299,383.016388 565.402100,384.078186 553.276733,379.839050 
	C540.140686,375.246490 532.195618,363.893890 531.546143,350.045868 
	C530.140930,320.086456 551.831482,297.551147 578.310120,293.012573 
	C599.992004,289.296234 618.898132,296.100433 635.103027,310.691895 
	C643.623352,318.363922 650.302551,327.358246 654.298340,338.606323 
z"/>
<path fill="#000000" opacity="1.000000" stroke="none" 
	d="
M763.350708,759.127747 
	C762.657532,764.546875 759.095947,764.404297 755.196045,764.598267 
	C751.362854,764.788879 750.523499,762.686157 749.531250,759.790100 
	C745.657654,748.484131 741.605408,737.239075 737.571899,725.988525 
	C737.138916,724.780701 736.394226,723.684631 735.332520,721.653687 
	C730.771851,734.516785 726.255798,746.455811 722.375183,758.597900 
	C720.855713,763.352051 718.436768,764.849854 713.725769,764.495728 
	C710.774536,764.273926 709.160339,763.219238 708.228149,760.501282 
	C702.081421,742.580811 695.870667,724.682434 689.702637,706.769226 
	C689.391602,705.865967 689.283264,704.892944 689.092468,704.008057 
	C695.242981,701.267883 699.918701,702.842529 701.813965,708.321106 
	C705.718689,719.608337 709.530823,730.928040 713.276917,742.268860 
	C713.753235,743.710632 714.200134,745.075806 715.309509,746.381592 
	C717.350464,744.890686 717.700500,742.519531 718.445374,740.440674 
	C722.313293,729.645813 726.181946,718.849548 729.855957,707.988037 
	C730.914795,704.857788 732.456116,703.462280 735.939636,703.494324 
	C739.341797,703.525635 741.040344,704.742188 742.091187,707.918274 
	C745.743469,718.958130 749.588379,729.934448 753.394470,740.923035 
	C753.977722,742.606995 754.134827,744.528503 755.959839,745.955505 
	C757.870117,744.608887 758.068726,742.385315 758.735596,740.464294 
	C762.549133,729.478760 766.566101,718.554749 770.001709,707.451294 
	C771.466858,702.716431 774.423767,702.316528 778.340027,702.669922 
	C782.029785,703.002747 781.569824,705.327759 780.760193,707.708740 
	C777.707764,716.685120 774.565979,725.631104 771.515137,734.607971 
	C768.784363,742.642822 766.129272,750.703369 763.350708,759.127747 
z"/>
<path fill="#000000" opacity="1.000000" stroke="none" 
	d="
M394.243683,733.658264 
	C392.906525,730.614929 391.396393,728.141846 389.138214,726.025757 
	C387.741943,727.702942 388.348877,729.406738 388.344025,730.996216 
	C388.314087,740.820923 388.225098,750.647278 388.371460,760.469849 
	C388.421356,763.817566 386.604950,765.304565 383.885712,764.957092 
	C381.345795,764.632568 377.581970,765.411011 377.617523,760.552673 
	C377.749176,742.569092 377.659363,724.583862 377.681763,706.599304 
	C377.683807,704.960510 377.559570,702.844849 379.897888,702.861938 
	C383.012115,702.884705 386.713531,701.065613 388.961884,704.853455 
	C394.813843,714.712219 400.590424,724.615601 406.407623,734.494995 
	C407.905884,737.039551 409.443054,739.561157 411.504150,742.996338 
	C416.028442,735.281067 420.088959,728.329529 424.176910,721.394226 
	C427.383881,715.953491 430.673889,710.561218 433.833923,705.093567 
	C436.086334,701.196289 439.698151,702.659180 442.780304,702.927307 
	C445.751770,703.185669 445.322113,705.960327 445.325165,708.071106 
	C445.350311,725.389648 445.234406,742.709290 445.413269,760.026001 
	C445.458435,764.398376 443.461639,765.348999 439.660034,765.419861 
	C435.556915,765.496399 434.585052,763.529846 434.625458,759.879150 
	C434.752289,748.418030 434.672150,736.954651 434.672150,724.457825 
	C429.867950,729.645996 427.765747,735.273193 424.567780,740.175171 
	C421.482147,744.904846 418.754486,749.866455 415.743561,754.646912 
	C413.245361,758.613281 409.210907,758.524048 406.752991,754.492371 
	C402.599945,747.680237 398.519379,740.823914 394.243683,733.658264 
z"/>
<path fill="#000000" opacity="1.000000" stroke="none" 
	d="
M301.675903,740.883301 
	C297.997742,717.885315 312.304352,705.581238 325.540405,703.244507 
	C344.970398,699.814392 361.009216,706.348450 365.625671,726.296875 
	C370.494019,747.333557 356.166748,765.111267 334.903168,765.629700 
	C316.765228,766.071899 303.715454,753.534119 301.675903,740.883301 
M343.804108,753.460327 
	C355.267578,746.657410 359.294403,732.377502 352.545868,722.234314 
	C345.083893,711.018799 330.950378,708.590576 320.417084,716.416199 
	C312.256622,722.479065 309.849884,735.640320 315.066162,744.838318 
	C320.669922,754.719482 331.623932,758.200806 343.804108,753.460327 
z"/>
<path fill="#000000" opacity="1.000000" stroke="none" 
	d="
M518.314453,764.891113 
	C508.702271,765.889771 508.412994,766.013245 504.747223,757.426880 
	C502.483917,752.125366 499.513855,749.644287 493.486877,750.266541 
	C487.715668,750.862427 481.835602,750.476318 476.005035,750.398682 
	C472.561981,750.352783 470.431427,751.692383 469.272217,755.078979 
	C468.309601,757.891235 466.774109,760.512146 465.433929,763.188599 
	C464.665649,764.722900 463.575684,765.950256 461.754272,766.266235 
	C459.489349,766.659119 457.241516,766.126038 455.612915,764.781921 
	C453.643982,763.156860 455.218658,760.914734 455.916382,759.253174 
	C459.648682,750.365540 463.605896,741.572144 467.508484,732.756348 
	C471.275726,724.246277 475.076050,715.750854 478.850922,707.244141 
	C479.950775,704.765564 480.943604,702.416809 484.454254,702.601624 
	C487.944275,702.785278 491.123108,702.309387 493.026581,706.631409 
	C499.991608,722.445618 507.420959,738.054688 514.470825,753.832520 
	C516.043640,757.352478 519.583435,760.174927 518.314453,764.891113 
M496.063202,738.850952 
	C493.220673,731.386841 489.971191,724.120728 485.830231,716.062073 
	C482.148743,724.640137 478.983734,732.014771 475.659149,739.761230 
	C478.869202,740.485779 481.336212,741.652588 483.675751,741.436829 
	C487.852020,741.051697 492.609772,743.871643 496.063202,738.850952 
z"/>
<path fill="#000000" opacity="1.000000" stroke="none" 
	d="
M253.845917,707.828796 
	C265.653839,699.597473 277.385345,700.970337 288.820496,707.445679 
	C294.702454,710.776489 288.944855,713.675232 287.871399,716.979431 
	C283.900879,715.891357 280.899048,713.395569 277.235291,712.304138 
	C273.024261,711.049683 269.063110,711.098206 265.065094,712.710754 
	C261.705078,714.065979 259.371277,716.403931 259.460968,720.187744 
	C259.542999,723.650940 262.244751,725.496094 265.048950,726.507446 
	C269.564758,728.136108 274.245453,729.338928 278.905487,730.530029 
	C290.596069,733.518250 294.846375,738.548828 294.347992,749.039246 
	C293.983978,756.700928 286.655396,763.957947 277.186249,765.119690 
	C268.343811,766.204529 259.562317,765.688538 251.546951,760.953064 
	C249.214493,759.575073 247.092743,758.077942 245.911545,755.343384 
	C246.843460,754.003052 247.812408,752.668091 248.719711,751.292419 
	C250.654037,748.359680 252.599991,748.368408 255.220856,750.698975 
	C261.432190,756.222290 268.882385,756.957275 276.661896,755.358704 
	C280.191681,754.633362 282.789948,752.239075 283.246063,748.640503 
	C283.708069,744.995178 281.018311,743.074341 278.014221,741.567078 
	C274.846283,739.977539 271.439850,739.182617 268.034515,738.559326 
	C265.390686,738.075439 262.865875,737.341980 260.362213,736.455200 
	C247.495193,731.897461 244.194382,718.087402 253.845917,707.828796 
z"/>
<path fill="#000000" opacity="1.000000" stroke="none" 
	d="
M652.786011,738.740234 
	C648.672729,740.419861 650.495667,743.734314 650.464111,746.219177 
	C650.336914,756.242004 649.030884,755.614685 659.737244,755.627808 
	C666.561707,755.636169 673.390564,755.789856 680.208984,755.589600 
	C684.645996,755.459290 684.248413,758.252625 684.363953,761.187927 
	C684.497620,764.583557 682.838440,765.789490 679.802551,765.320312 
	C667.886780,763.478760 655.898621,764.734192 643.948914,764.430420 
	C640.700684,764.347778 639.596252,763.133179 639.611450,759.971252 
	C639.695374,742.494324 639.677307,725.016846 639.626099,707.539673 
	C639.615479,703.920532 640.656555,703.031677 644.678040,703.250122 
	C655.963135,703.863037 667.298584,703.622498 678.613464,703.567383 
	C681.865479,703.551514 683.518494,704.419556 683.440979,708.065002 
	C683.372131,711.299072 682.173828,712.478027 678.991821,712.427490 
	C671.170715,712.303223 663.342590,712.528992 655.524597,712.329590 
	C651.647034,712.230652 650.200684,713.587708 650.308044,717.532654 
	C650.656494,730.342529 648.672180,728.515930 661.488037,728.613220 
	C665.815491,728.646057 670.150879,728.783203 674.468689,728.577881 
	C678.097107,728.405334 679.467285,729.705750 679.431458,733.442200 
	C679.397339,737.001648 678.408020,738.546997 674.609985,738.473450 
	C667.461548,738.335144 660.305420,738.595581 652.786011,738.740234 
z"/>
<path fill="#000000" opacity="1.000000" stroke="none" 
	d="
M566.793579,732.308716 
	C569.816528,738.027466 570.687439,744.293579 574.554138,749.963074 
	C579.091858,738.810425 583.409485,728.218445 587.709900,717.619568 
	C589.333435,713.618286 590.711182,709.502502 592.568237,705.614319 
	C595.263062,699.972229 599.910828,703.620178 604.330627,702.775452 
	C603.089172,710.274902 599.931396,716.134705 597.466003,722.202820 
	C592.155884,735.272644 586.626404,748.253174 581.268127,761.303711 
	C580.276184,763.719666 578.775146,765.258972 576.136780,765.286011 
	C572.263916,765.325745 568.828125,764.301147 567.099426,760.402405 
	C563.531433,752.355591 559.977478,744.301331 556.538513,736.198914 
	C552.196167,725.968323 547.968018,715.689270 543.717285,705.420105 
	C543.476685,704.838806 543.477417,704.157532 543.369080,703.540955 
	C552.053223,701.101135 554.080627,701.974487 557.459717,709.880615 
	C560.591797,717.208984 563.570435,724.602905 566.793579,732.308716 
z"/>
<path fill="#000000" opacity="1.000000" stroke="none" 
	d="
M624.300049,706.217896 
	C624.325867,724.015686 624.223511,741.334167 624.412476,758.649414 
	C624.458252,762.840576 623.459656,764.606140 618.869385,764.515015 
	C614.593750,764.430054 613.551025,762.834106 613.588135,758.870911 
	C613.748779,741.721619 613.636475,724.569885 613.687317,707.419189 
	C613.692810,705.567200 613.076904,702.853699 616.080322,702.865417 
	C619.015381,702.876892 622.954346,700.854187 624.300049,706.217896 
z"/>
</svg>